# xmcd CD database file
#
# Track frame offsets:
#	150
#	15469
#	35346
#	51430
#	67870
#	85366
#	98464
#	111947
#	124561
#	143570
#	158887
#
# Disc length: 2366 seconds
#
# Revision: 0
# Processed by: cddbd v1.5.2PL0 Copyright (c) Steve Scherf et al.
# Submitted via: CDex 1.70beta2
#
DISCID=82093c0b
DTITLE=Jewel - Sweet And Wild
DYEAR=2010
DGENRE=Country
TTITLE0=No Good In Goodbye
TTITLE1=I Love You Forever
TTITLE2=Fading
TTITLE3=What You Are
TTITLE4=Bad As It Gets
TTITLE5=Summer Home In Your Arms
TTITLE6=Stay Here Forever
TTITLE7=No More Heartaches
TTITLE8=One True Thing
TTITLE9=Ten
TTITLE10=Satisfied
EXTD=YEAR: 2010
EXTT0=
EXTT1=
EXTT2=
EXTT3=
EXTT4=
EXTT5=
EXTT6=
EXTT7=
EXTT8=
EXTT9=
EXTT10=
PLAYORDER=
